# xmcd
#
# Track frame offsets:
#	150
#	17795
#	35765
#	49384
#	65642
#	81401
#	101677
#	120629
#	133793
#	155627
#	167651
#	182796
#	193931
#	207429
#
# Disc length: 3010 seconds
#
# Revision: 1
# Processed by: cddbd v1.5.1PL0 Copyright (c) Steve Scherf et al.
# Submitted via: audiograbber 1.83.01
#
DISCID=d60bc00e
DTITLE=Gary P. Nunn - Something For The Trail
DYEAR=1900
DGENRE=
TTITLE0=Perfectly Normal
TTITLE1=Waltz With The Devil
TTITLE2=Hard Partyin' Country Darlin'
TTITLE3=Second Thoughts
TTITLE4=Hillbilly, Hog-Ridin', Road-Runnin' Man
TTITLE5=Don't Get Me Started
TTITLE6=West Texas Swing Thang
TTITLE7=Two-Steppin' Time Of Night
TTITLE8=Going Nowhere Fast
TTITLE9=King Of The World
TTITLE10=One Night Stand
TTITLE11=A Little Piece Of Mind
TTITLE12=Cowboy At Heart
TTITLE13=Something For The Trail
EXTD=
EXTT0=
EXTT1=
EXTT2=
EXTT3=
EXTT4=
EXTT5=
EXTT6=
EXTT7=
EXTT8=
EXTT9=
EXTT10=
EXTT11=
EXTT12=
EXTT13=
PLAYORDER=
